nColumns=28
nRows=67
DataType=double
version=3
OpenSimVersion=4.1
endheader
time	ground_force_1_vx	ground_force_1_vy	ground_force_1_vz	ground_force_1_px	ground_force_1_py	ground_force_1_pz	ground_force_1_mx	ground_force_1_my	ground_force_1_mz	ground_force_2_vx	ground_force_2_vy	ground_force_2_vz	ground_force_2_px	ground_force_2_py	ground_force_2_pz	ground_force_2_mx	ground_force_2_my	ground_force_2_mz	ground_force_3_vx	ground_force_3_vy	ground_force_3_vz	ground_force_3_px	ground_force_3_py	ground_force_3_pz	ground_force_3_mx	ground_force_3_my	ground_force_3_mz
6.74	-2.24531	518.638	-32.961	-0.221691	0.006	-0.432979	0	-12.397	0	25.542	481.586	25.9332	-0.243195	0.006	-0.87896	0	10.7362	0	0	0	0	0	0	0	0	0	0
6.75	-1.71997	512.948	-33.3883	-0.222465	0.006	-0.433206	0	-12.1061	0	26.0883	475.754	26.5714	-0.243945	0.006	-0.878699	0	10.4152	0	0	0	0	0	0	0	0	0	0
6.76	-1.27097	507.55	-33.5873	-0.223164	0.006	-0.433435	0	-11.8341	0	26.411	470.491	27.1545	-0.244586	0.006	-0.878442	0	10.1042	0	0	0	0	0	0	0	0	0	0
6.77	-0.915616	502.436	-33.5888	-0.223779	0.006	-0.433661	0	-11.5802	0	26.4993	465.728	27.6885	-0.245114	0.006	-0.878192	0	9.80294	0	0	0	0	0	0	0	0	0	0
6.78	-0.665143	497.598	-33.4267	-0.224301	0.006	-0.43388	0	-11.3437	0	26.3522	461.406	28.1759	-0.245527	0.006	-0.877951	0	9.51136	0	0	0	0	0	0	0	0	0	0
6.79	-0.524069	493.033	-33.1365	-0.224728	0.006	-0.434088	0	-11.1244	0	25.9772	457.478	28.6172	-0.245827	0.006	-0.877717	0	9.2299	0	0	0	0	0	0	0	0	0	0
6.8	-0.489642	488.752	-32.7532	-0.225064	0.006	-0.434283	0	-10.9222	0	25.387	453.903	29.013	-0.246021	0.006	-0.87749	0	8.95907	0	0	0	0	0	0	0	0	0	0
6.81	-0.553345	484.776	-32.3114	-0.225309	0.006	-0.43446	0	-10.7371	0	24.5973	450.644	29.3667	-0.246115	0.006	-0.87727	0	8.69932	0	0	0	0	0	0	0	0	0	0
6.82	-0.705403	481.142	-31.8457	-0.225468	0.006	-0.434617	0	-10.5691	0	23.6264	447.666	29.6854	-0.246114	0.006	-0.877057	0	8.451	0	0	0	0	0	0	0	0	0	0
6.83	-0.94029	477.886	-31.3904	-0.22554	0.006	-0.434749	0	-10.418	0	22.4961	444.943	29.9783	-0.246025	0.006	-0.876851	0	8.2143	0	0	0	0	0	0	0	0	0	0
6.84	-1.25741	475.033	-30.9782	-0.225524	0.006	-0.434852	0	-10.2834	0	21.2327	442.46	30.254	-0.245859	0.006	-0.876651	0	7.98934	0	0	0	0	0	0	0	0	0	0
6.85	-1.65665	472.586	-30.6375	-0.225418	0.006	-0.434924	0	-10.1648	0	19.8674	440.202	30.5188	-0.245625	0.006	-0.876457	0	7.77615	0	0	0	0	0	0	0	0	0	0
6.86	-2.13489	470.53	-30.3915	-0.225226	0.006	-0.434963	0	-10.0616	0	18.4349	438.157	30.7763	-0.245336	0.006	-0.87627	0	7.57464	0	0	0	0	0	0	0	0	0	0
6.87	-2.68399	468.842	-30.2573	-0.224961	0.006	-0.43497	0	-9.97349	0	16.9704	436.306	31.0286	-0.245006	0.006	-0.876088	0	7.3847	0	0	0	0	0	0	0	0	0	0
6.88	-3.28863	467.499	-30.2446	-0.224642	0.006	-0.434952	0	-9.89988	0	15.5069	434.629	31.2763	-0.244649	0.006	-0.875913	0	7.20628	0	0	0	0	0	0	0	0	0	0
6.89	-3.92564	466.471	-30.3552	-0.224298	0.006	-0.434915	0	-9.84023	0	14.0727	433.108	31.5197	-0.244278	0.006	-0.875743	0	7.0394	0	0	0	0	0	0	0	0	0	0
6.9	-4.56605	465.735	-30.584	-0.223964	0.006	-0.434871	0	-9.79377	0	12.6908	431.732	31.7594	-0.243906	0.006	-0.875578	0	6.88411	0	0	0	0	0	0	0	0	0	0
6.91	-5.18052	465.268	-30.9195	-0.223671	0.006	-0.434831	0	-9.75942	0	11.3784	430.498	31.9963	-0.243543	0.006	-0.875418	0	6.74057	0	0	0	0	0	0	0	0	0	0
6.92	-5.747	465.051	-31.3463	-0.223447	0.006	-0.434804	0	-9.73566	0	10.1477	429.413	32.2321	-0.2432	0.006	-0.875263	0	6.60884	0	0	0	0	0	0	0	0	0	0
6.93	-6.25744	465.062	-31.847	-0.223303	0.006	-0.434799	0	-9.72048	0	9.00617	428.489	32.4695	-0.242883	0.006	-0.87511	0	6.48882	0	0	0	0	0	0	0	0	0	0
6.94	-6.71898	465.273	-32.4046	-0.223238	0.006	-0.43482	0	-9.71151	0	7.95557	427.744	32.7115	-0.242598	0.006	-0.874962	0	6.3802	0	0	0	0	0	0	0	0	0	0
6.95	-7.14732	465.646	-33.0028	-0.223242	0.006	-0.434871	0	-9.70613	0	6.99065	427.193	32.9613	-0.242345	0.006	-0.874816	0	6.28251	0	0	0	0	0	0	0	0	0	0
6.96	-7.55783	466.137	-33.6248	-0.223297	0.006	-0.434951	0	-9.70162	0	6.10225	426.842	33.2237	-0.242127	0.006	-0.874676	0	6.19529	0	0	0	0	0	0	0	0	0	0
6.97	-7.96107	466.696	-34.2521	-0.223387	0.006	-0.435061	0	-9.69532	0	5.2819	426.689	33.5053	-0.241944	0.006	-0.874541	0	6.11806	0	0	0	0	0	0	0	0	0	0
6.98	-8.36352	467.271	-34.866	-0.223499	0.006	-0.435199	0	-9.68492	0	4.525	426.724	33.812	-0.241797	0.006	-0.874414	0	6.05022	0	0	0	0	0	0	0	0	0	0
6.99	-8.76908	467.816	-35.4512	-0.223622	0.006	-0.435362	0	-9.66863	0	3.83158	426.928	34.148	-0.241685	0.006	-0.874299	0	5.99095	0	0	0	0	0	0	0	0	0	0
7	-9.17905	468.293	-35.9987	-0.223752	0.006	-0.435547	0	-9.6451	0	3.20417	427.273	34.5135	-0.241604	0.006	-0.874197	0	5.93925	0	0	0	0	0	0	0	0	0	0
7.01	-9.59209	468.676	-36.5064	-0.223893	0.006	-0.435752	0	-9.61326	0	2.6434	427.72	34.9051	-0.241548	0.006	-0.874112	0	5.89398	0	0	0	0	0	0	0	0	0	0
7.02	-10.0041	468.953	-36.9782	-0.224052	0.006	-0.435974	0	-9.57228	0	2.1455	428.215	35.3183	-0.241505	0.006	-0.874045	0	5.8541	0	0	0	0	0	0	0	0	0	0
7.03	-10.4088	469.117	-37.4206	-0.224238	0.006	-0.43621	0	-9.52155	0	1.70428	428.699	35.7495	-0.241462	0.006	-0.874	0	5.8185	0	0	0	0	0	0	0	0	0	0
7.04	-10.8004	469.174	-37.8388	-0.224459	0.006	-0.436459	0	-9.46076	0	1.31485	429.121	36.1981	-0.241406	0.006	-0.873979	0	5.78585	0	0	0	0	0	0	0	0	0	0
7.05	-11.1759	469.136	-38.237	-0.224721	0.006	-0.436717	0	-9.38996	0	0.975843	429.442	36.6673	-0.241327	0.006	-0.873987	0	5.75464	0	0	0	0	0	0	0	0	0	0
7.06	-11.5348	469.021	-38.6181	-0.225029	0.006	-0.436983	0	-9.30952	0	0.688798	429.642	37.1637	-0.241213	0.006	-0.874025	0	5.72307	0	0	0	0	0	0	0	0	0	0
7.07	-11.8781	468.858	-38.984	-0.22538	0.006	-0.437254	0	-9.22013	0	0.456168	429.708	37.6967	-0.24106	0.006	-0.874095	0	5.68904	0	0	0	0	0	0	0	0	0	0
7.08	-12.2072	468.678	-39.3351	-0.225772	0.006	-0.437529	0	-9.12265	0	0.278834	429.632	38.2772	-0.24086	0.006	-0.874201	0	5.65015	0	0	0	0	0	0	0	0	0	0
7.09	-12.5227	468.504	-39.6686	-0.226201	0.006	-0.437805	0	-9.01802	0	0.156007	429.406	38.9169	-0.240614	0.006	-0.874343	0	5.60393	0	0	0	0	0	0	0	0	0	0
7.1	-12.8243	468.349	-39.9786	-0.22666	0.006	-0.43808	0	-8.90723	0	0.0874353	429.02	39.6252	-0.240323	0.006	-0.874522	0	5.54797	0	0	0	0	0	0	0	0	0	0
7.11	-13.1101	468.212	-40.2568	-0.227142	0.006	-0.438351	0	-8.7913	0	0.0748726	428.461	40.4059	-0.239993	0.006	-0.874736	0	5.48015	0	0	0	0	0	0	0	0	0	0
7.12	-13.3744	468.091	-40.4972	-0.227644	0.006	-0.438616	0	-8.6713	0	0.122402	427.71	41.2552	-0.239637	0.006	-0.874981	0	5.39879	0	0	0	0	0	0	0	0	0	0
7.13	-13.6052	467.991	-40.6991	-0.22816	0.006	-0.438871	0	-8.54832	0	0.235222	426.745	42.162	-0.239265	0.006	-0.875251	0	5.30294	0	0	0	0	0	0	0	0	0	0
7.14	-13.7842	467.929	-40.8698	-0.228691	0.006	-0.439114	0	-8.42351	0	0.417073	425.546	43.1092	-0.238893	0.006	-0.875539	0	5.1924	0	0	0	0	0	0	0	0	0	0
7.15	-13.8901	467.925	-41.026	-0.229235	0.006	-0.439341	0	-8.29804	0	0.66673	424.096	44.0755	-0.238531	0.006	-0.875839	0	5.06769	0	0	0	0	0	0	0	0	0	0
7.16	-13.9035	467.996	-41.1915	-0.229791	0.006	-0.439547	0	-8.17297	0	0.97564	422.382	45.0384	-0.238188	0.006	-0.876143	0	4.92986	0	0	0	0	0	0	0	0	0	0
7.17	-13.8091	468.14	-41.3929	-0.230358	0.006	-0.439726	0	-8.04915	0	1.32849	420.396	45.9762	-0.237868	0.006	-0.876446	0	4.78048	0	0	0	0	0	0	0	0	0	0
7.18	-13.5992	468.333	-41.6558	-0.230931	0.006	-0.439871	0	-7.92721	0	1.70577	418.129	46.8706	-0.237573	0.006	-0.876745	0	4.62144	0	0	0	0	0	0	0	0	0	0
7.19	-13.2754	468.534	-42.0034	-0.231505	0.006	-0.439975	0	-7.8076	0	2.08768	415.575	47.7065	-0.237302	0.006	-0.877035	0	4.45488	0	0	0	0	0	0	0	0	0	0
7.2	-12.8485	468.697	-42.4552	-0.232072	0.006	-0.440033	0	-7.69065	0	2.4579	412.729	48.4727	-0.237056	0.006	-0.877314	0	4.28308	0	0	0	0	0	0	0	0	0	0
7.21	-12.335	468.779	-43.025	-0.232628	0.006	-0.44004	0	-7.57634	0	2.80537	409.59	49.1607	-0.236838	0.006	-0.877578	0	4.10849	0	0	0	0	0	0	0	0	0	0
7.22	-11.7535	468.746	-43.7183	-0.233171	0.006	-0.439996	0	-7.46446	0	3.12537	406.171	49.7647	-0.236655	0.006	-0.877823	0	3.93369	0	0	0	0	0	0	0	0	0	0
7.23	-11.121	468.567	-44.5308	-0.233701	0.006	-0.439904	0	-7.35443	0	3.41958	402.495	50.2796	-0.236517	0.006	-0.878043	0	3.76113	0	0	0	0	0	0	0	0	0	0
7.24	-10.4524	468.221	-45.4499	-0.234224	0.006	-0.43977	0	-7.24535	0	3.69395	398.594	50.7005	-0.236435	0.006	-0.878234	0	3.59306	0	0	0	0	0	0	0	0	0	0
7.25	-9.76178	467.693	-46.4581	-0.234744	0.006	-0.4396	0	-7.13608	0	3.95442	394.499	51.0237	-0.236419	0.006	-0.87839	0	3.43137	0	0	0	0	0	0	0	0	0	0
7.26	-9.06286	466.976	-47.5352	-0.235266	0.006	-0.439402	0	-7.02528	0	4.20417	390.239	51.2463	-0.236476	0.006	-0.878509	0	3.27762	0	0	0	0	0	0	0	0	0	0
7.27	-8.36895	466.078	-48.6606	-0.235793	0.006	-0.439184	0	-6.91147	0	4.44329	385.837	51.3673	-0.236611	0.006	-0.878589	0	3.13309	0	0	0	0	0	0	0	0	0	0
7.28	-7.69132	465.024	-49.8133	-0.23633	0.006	-0.438953	0	-6.79311	0	4.66935	381.321	51.3877	-0.236825	0.006	-0.878629	0	2.99874	0	0	0	0	0	0	0	0	0	0
7.29	-7.03769	463.856	-50.9716	-0.236881	0.006	-0.438717	0	-6.66868	0	4.8784	376.731	51.3116	-0.237119	0.006	-0.878631	0	2.8753	0	0	0	0	0	0	0	0	0	0
7.3	-6.41262	462.633	-52.114	-0.23745	0.006	-0.438486	0	-6.53688	0	5.06541	372.116	51.1454	-0.237493	0.006	-0.878595	0	2.7631	0	0	0	0	0	0	0	0	0	0
7.31	-5.81988	461.427	-53.2193	-0.23804	0.006	-0.438268	0	-6.39661	0	5.22368	367.538	50.8975	-0.237944	0.006	-0.878525	0	2.66211	0	0	0	0	0	0	0	0	0	0
7.32	-5.26446	460.312	-54.2676	-0.238652	0.006	-0.438071	0	-6.24705	0	5.3455	363.063	50.5782	-0.238471	0.006	-0.878423	0	2.57208	0	0	0	0	0	0	0	0	0	0
7.33	-4.75442	459.357	-55.2409	-0.239287	0.006	-0.437904	0	-6.08756	0	5.42502	358.754	50.1981	-0.23907	0.006	-0.878293	0	2.49273	0	0	0	0	0	0	0	0	0	0
7.34	-4.29941	458.625	-56.1225	-0.239944	0.006	-0.437773	0	-5.91779	0	5.4608	354.659	49.7669	-0.239741	0.006	-0.878139	0	2.42356	0	0	0	0	0	0	0	0	0	0
7.35	-3.90605	458.168	-56.8965	-0.240622	0.006	-0.437685	0	-5.73772	0	5.45757	350.8	49.2921	-0.240484	0.006	-0.877968	0	2.36395	0	0	0	0	0	0	0	0	0	0
7.36	-3.57704	458.03	-57.5495	-0.24132	0.006	-0.437646	0	-5.54773	0	5.42759	347.172	48.779	-0.241301	0.006	-0.877787	0	2.31308	0	0	0	0	0	0	0	0	0	0
7.37	-3.31208	458.245	-58.0733	-0.242039	0.006	-0.437659	0	-5.34853	0	5.38939	343.754	48.2318	-0.242201	0.006	-0.877603	0	2.26991	0	0	0	0	0	0	0	0	0	0
7.38	-3.10556	458.839	-58.4653	-0.24278	0.006	-0.437726	0	-5.14109	0	5.36645	340.523	47.6557	-0.243195	0.006	-0.877424	0	2.23311	0	0	0	0	0	0	0	0	0	0
7.39	-2.94425	459.827	-58.7286	-0.243546	0.006	-0.437847	0	-4.92662	0	5.38645	337.457	47.055	-0.244298	0.006	-0.877257	0	2.20077	0	0	0	0	0	0	0	0	0	0
7.4	-2.80762	461.213	-58.8704	-0.24434	0.006	-0.438018	0	-4.70651	0	5.4794	334.55	46.4319	-0.245534	0.006	-0.877105	0	2.1704	0	0	0	0	0	0	0	0	0	0
